<svg xmlns="http://www.w3.org/2000/svg" viewBox="0 0 640 200" width="640" height="200" role="img">
  <title>SmartMeal — TriDot Horizontal</title>
  <defs>
    <linearGradient id="td-h-bg" x1="0%" y1="0%" x2="100%" y2="100%">
      <stop offset="0%" stop-color="#064E3B"/>
      <stop offset="100%" stop-color="#065F46"/>
    </linearGradient>
  </defs>

  <!-- Icon (scaled down) -->
  <g transform="translate(16, 16) scale(0.328)">
    <rect width="512" height="512" rx="112" fill="url(#td-h-bg)"/>
    <g stroke="#34D399" stroke-width="6" stroke-linecap="round" opacity="0.5">
      <line x1="256" y1="140" x2="148" y2="340"/>
      <line x1="256" y1="140" x2="364" y2="340"/>
      <line x1="148" y1="340" x2="364" y2="340"/>
    </g>
    <circle cx="256" cy="275" r="16" fill="#34D399" opacity="0.4"/>
    <circle cx="256" cy="140" r="64" fill="#10B981"/>
    <g transform="translate(256, 140)">
      <path d="M0,-28 C20,-24 28,-8 28,8 C28,20 16,28 0,28 C-16,28 -28,20 -28,8 C-28,-8 -20,-24 0,-28Z" fill="#FFFFFF"/>
      <path d="M0,-20 C0,-20 0,24 0,24" stroke="#10B981" stroke-width="3" stroke-linecap="round"/>
      <path d="M0,0 C-10,-10 -16,-8 -20,-4" stroke="#10B981" stroke-width="2.5" stroke-linecap="round" fill="none"/>
      <path d="M0,-4 C10,-14 16,-10 18,-6" stroke="#10B981" stroke-width="2.5" stroke-linecap="round" fill="none"/>
    </g>
    <circle cx="148" cy="340" r="64" fill="#10B981"/>
    <g transform="translate(148, 340)">
      <rect x="-28" y="-5" width="56" height="10" rx="5" fill="#FFFFFF"/>
      <rect x="-36" y="-14" width="14" height="28" rx="5" fill="#FFFFFF"/>
      <rect x="22" y="-14" width="14" height="28" rx="5" fill="#FFFFFF"/>
    </g>
    <circle cx="364" cy="340" r="64" fill="#10B981"/>
    <g transform="translate(364, 340)">
      <g stroke="#FFFFFF" stroke-width="5" stroke-linecap="round">
        <line x1="0" y1="-24" x2="0" y2="24"/>
        <line x1="-24" y1="0" x2="24" y2="0"/>
      </g>
      <g stroke="#FFFFFF" stroke-width="4" stroke-linecap="round">
        <line x1="-17" y1="-17" x2="17" y2="17"/>
        <line x1="17" y1="-17" x2="-17" y2="17"/>
      </g>
      <circle cx="0" cy="0" r="6" fill="#FFFFFF"/>
    </g>
  </g>

  <!-- Wordmark -->
  <g transform="translate(210, 80)">
    <text font-family="'SF Pro Display','Inter','Segoe UI','Helvetica Neue',Arial,sans-serif"
          font-size="52" font-weight="800" fill="#064E3B" letter-spacing="-1">
      SmartMeal
    </text>
    <text y="44"
          font-family="'SF Pro Display','Inter','Segoe UI','Helvetica Neue',Arial,sans-serif"
          font-size="22" font-weight="600" fill="#10B981" letter-spacing="8">
      PLANNER
    </text>
  </g>
</svg>
