<svg xmlns="http://www.w3.org/2000/svg" viewBox="0 0 600 160" width="600" height="160" role="img" aria-labelledby="title2h">
  <title id="title2h">Smart Meal Planner - Nature Inspired Horizontal</title>
  <defs>
    <linearGradient id="ni-h-leaf" x1="0%" y1="0%" x2="100%" y2="100%">
      <stop offset="0%" stop-color="#059669"/>
      <stop offset="100%" stop-color="#34D399"/>
    </linearGradient>
  </defs>

  <!-- Sprout icon scaled -->
  <g transform="translate(-8, 5) scale(0.29)">
    <ellipse cx="256" cy="340" rx="130" ry="30" fill="#D1FAE5" opacity="0.6"/>
    <path d="M256 330 C256 280, 256 230, 256 180" stroke="#10B981" stroke-width="8" stroke-linecap="round" fill="none"/>
    <path d="M256 220 C220 190, 170 180, 155 200 C140 220, 170 260, 220 250 C235 247, 248 235, 256 220Z" fill="url(#ni-h-leaf)" opacity="0.9"/>
    <path d="M256 180 C290 150, 340 140, 360 158 C380 176, 355 215, 300 210 C282 208, 266 196, 256 180Z" fill="url(#ni-h-leaf)"/>
    <path d="M256 180 C248 160, 242 135, 250 120 C255 112, 262 115, 264 125 C268 140, 262 162, 256 180Z" fill="#34D399"/>
  </g>

  <!-- Wordmark -->
  <text x="160" y="72" font-family="'SF Pro Display', 'Segoe UI', 'Helvetica Neue', Arial, sans-serif" font-size="36" font-weight="700" fill="#10B981" letter-spacing="-0.5">Smart</text>
  <text x="160" y="72" font-family="'SF Pro Display', 'Segoe UI', 'Helvetica Neue', Arial, sans-serif" font-size="36" font-weight="700" fill="#1E293B" letter-spacing="-0.5" dx="105">Meal</text>
  <text x="160" y="110" font-family="'SF Pro Display', 'Segoe UI', 'Helvetica Neue', Arial, sans-serif" font-size="18" font-weight="400" fill="#64748B" letter-spacing="3">PLANNER</text>
</svg>
