<svg xmlns="http://www.w3.org/2000/svg" viewBox="0 0 512 512" width="512" height="512" role="img" aria-labelledby="title8 desc8">
  <title id="title8">Smart Meal Planner - Vietnamese Localization</title>
  <desc id="desc8">A stylized rice bowl with chopsticks and lotus leaf element, representing Vietnamese food culture</desc>
  <defs>
    <linearGradient id="vn-bowl" x1="0%" y1="0%" x2="100%" y2="100%">
      <stop offset="0%" stop-color="#059669"/>
      <stop offset="100%" stop-color="#10B981"/>
    </linearGradient>
    <linearGradient id="vn-steam" x1="50%" y1="100%" x2="50%" y2="0%">
      <stop offset="0%" stop-color="#10B981" stop-opacity="0.5"/>
      <stop offset="100%" stop-color="#34D399" stop-opacity="0"/>
    </linearGradient>
  </defs>
  <rect width="512" height="512" rx="102" fill="#FFFFFF"/>
  <g fill="none" stroke-linecap="round" stroke-width="4">
    <path d="M200,185 C200,170 210,160 210,145 C210,130 200,120 200,105" stroke="url(#vn-steam)"/>
    <path d="M256,175 C256,160 266,150 266,135 C266,120 256,110 256,95" stroke="url(#vn-steam)"/>
    <path d="M312,185 C312,170 322,160 322,145 C322,130 312,120 312,105" stroke="url(#vn-steam)"/>
  </g>
  <path d="M120,240 C120,240 130,370 256,370 C382,370 392,240 392,240 Z" fill="url(#vn-bowl)"/>
  <rect x="108" y="220" width="296" height="12" rx="6" fill="#10B981"/>
  <g fill="#FFFFFF" opacity="0.15">
    <circle cx="220" cy="265" r="4"/><circle cx="250" cy="260" r="3"/><circle cx="280" cy="268" r="4"/>
    <circle cx="310" cy="262" r="3"/><circle cx="200" cy="280" r="3"/><circle cx="235" cy="285" r="4"/>
    <circle cx="270" cy="280" r="3"/><circle cx="305" cy="283" r="4"/><circle cx="330" cy="275" r="3"/>
  </g>
  <g stroke-linecap="round">
    <line x1="180" y1="140" x2="340" y2="210" stroke="#D97706" stroke-width="7"/>
    <line x1="180" y1="140" x2="340" y2="210" stroke="#F59E0B" stroke-width="4"/>
    <line x1="330" y1="140" x2="190" y2="210" stroke="#D97706" stroke-width="7"/>
    <line x1="330" y1="140" x2="190" y2="210" stroke="#F59E0B" stroke-width="4"/>
  </g>
  <g transform="translate(256, 300)">
    <path d="M0,-20 C8,-15 12,-5 8,5 C5,12 0,15 0,15 C0,15 -5,12 -8,5 C-12,-5 -8,-15 0,-20Z" fill="#34D399" opacity="0.4"/>
    <path d="M-15,-10 C-8,-12 -2,-8 2,0 C4,6 2,12 0,15 C-2,12 -8,5 -12,0 C-15,-5 -16,-8 -15,-10Z" fill="#34D399" opacity="0.3"/>
    <path d="M15,-10 C8,-12 2,-8 -2,0 C-4,6 -2,12 0,15 C2,12 8,5 12,0 C15,-5 16,-8 15,-10Z" fill="#34D399" opacity="0.3"/>
  </g>
  <ellipse cx="256" cy="375" rx="55" ry="10" fill="#059669"/>
</svg>
